<?xml version="1.0" standalone="no"?>
<!DOCTYPE svg PUBLIC "-//W3C//DTD SVG 1.1//EN" "http://www.w3.org/Graphics/SVG/1.1/DTD/svg11.dtd" >
<!--
2016-8-1: Created.
-->
<svg xmlns="http://www.w3.org/2000/svg">
<metadata>
Created by FontForge 20120731 at Mon Aug  1 15:06:13 2016
 By Robin Poort
Created by Robin Poort with FontForge 2.0 (http://fontforge.sf.net)
</metadata>
<defs>
<font id="k-icons" horiz-adv-x="512" >
  <font-face 
    font-family="k-icons"
    font-weight="500"
    font-stretch="normal"
    units-per-em="512"
    panose-1="2 0 6 3 0 0 0 0 0 0"
    ascent="448"
    descent="-64"
    bbox="-0.5 -78 517 450"
    underline-thickness="25.6"
    underline-position="-51.2"
    unicode-range="U+F101-F1F1"
  />
    <missing-glyph />
    <glyph glyph-name="uniF101" unicode="&#xf101;" 
d="M192 448h320v-448h-320v64h256v320h-256v64zM256 320l128 -96l-128 -96v64h-256v64h256v64z" />
    <glyph glyph-name="uniF102" unicode="&#xf102;" 
d="M192 448h320v-448h-320v64h256v320h-256v64zM128 320v-64h256v-64h-256v-64l-128 96z" />
    <glyph glyph-name="uniF103" unicode="&#xf103;" 
d="M224 384c124 0 224 -100 224 -224v-32h64l-128 -128l-128 128h64v32c0 88 -72 160 -160 160s-160 -72 -160 -160c0 124 100 224 224 224z" />
    <glyph glyph-name="uniF104" unicode="&#xf104;" 
d="M288 384c124 0 224 -100 224 -224c0 88 -72 160 -160 160s-160 -72 -160 -160v-32h64l-128 -128l-128 128h64v32c0 124 100 224 224 224z" />
    <glyph glyph-name="uniF105" unicode="&#xf105;" 
d="M0 448h512v-64h-512v64zM64 320h384v-64h-384v64zM0 192h512v-64h-512v64zM64 64h384v-64h-384v64z" />
    <glyph glyph-name="uniF106" unicode="&#xf106;" 
d="M0 448h512v-64h-512v64zM0 320h384v-64h-384v64zM0 192h512v-64h-512v64zM0 64h384v-64h-384v64z" />
    <glyph glyph-name="uniF107" unicode="&#xf107;" 
d="M0 448h512v-64h-512v64zM128 320h384v-64h-384v64zM0 192h512v-64h-512v64zM128 64h384v-64h-384v64z" />
    <glyph glyph-name="uniF108" unicode="&#xf108;" 
d="M256 448c48 0 94 -15 132 -38l-48 -144l-206 150c36 20 78 32 122 32zM80 376h-1l123 -89l-198 -142c-3 15 -4 30 -4 46c0 73 31 138 80 185zM440 367c44 -46 72 -108 72 -176c0 -22 -5 -44 -10 -64h-140zM138 161l72 -222c-82 15 -149 70 -184 142zM237 63h239
c-40 -70 -113 -118 -198 -126z" />
    <glyph glyph-name="uniF109" unicode="&#xf109;" horiz-adv-x="320" 
d="M128 448h64v-320h128l-158 -192l-162 192h128v320z" />
    <glyph glyph-name="uniF10A" unicode="&#xf10a;" 
d="M256 448c141 0 256 -115 256 -256s-115 -256 -256 -256s-256 115 -256 256s115 256 256 256zM192 384v-192h-128l192 -192l192 192h-128v192h-128z" />
    <glyph glyph-name="uniF10B" unicode="&#xf10b;" 
d="M256 448c141 0 256 -115 256 -256s-115 -256 -256 -256s-256 115 -256 256s115 256 256 256zM256 384l-192 -192l192 -192v128h192v128h-192v128z" />
    <glyph glyph-name="uniF10C" unicode="&#xf10c;" 
d="M256 448c141 0 256 -115 256 -256s-115 -256 -256 -256s-256 115 -256 256s115 256 256 256zM256 384v-128h-192v-128h192v-128l192 192z" />
    <glyph glyph-name="uniF10D" unicode="&#xf10d;" 
d="M256 448c141 0 256 -115 256 -256s-115 -256 -256 -256s-256 115 -256 256s115 256 256 256zM256 384l-192 -192h128v-192h128v192h128z" />
    <glyph glyph-name="uniF10E" unicode="&#xf10e;" 
d="M192 384v-128h320v-64h-320v-128l-192 158z" />
    <glyph glyph-name="uniF10F" unicode="&#xf10f;" 
d="M320 384l192 -158l-192 -162v128h-320v64h320v128z" />
    <glyph glyph-name="uniF110" unicode="&#xf110;" horiz-adv-x="384" 
d="M128 448h128v-320h128l-190 -192l-194 192h128v320z" />
    <glyph glyph-name="uniF111" unicode="&#xf111;" 
d="M192 384v-128h320v-128h-320v-128l-192 190z" />
    <glyph glyph-name="uniF112" unicode="&#xf112;" 
d="M320 384l192 -190l-192 -194v128h-320v128h320v128z" />
    <glyph glyph-name="uniF113" unicode="&#xf113;" horiz-adv-x="384" 
d="M190 448l194 -192h-128v-320h-128v320h-128z" />
    <glyph glyph-name="uniF114" unicode="&#xf114;" horiz-adv-x="320" 
d="M158 448l162 -192h-128v-320h-64v320h-128z" />
    <glyph glyph-name="uniF115" unicode="&#xf115;" horiz-adv-x="448" 
d="M256 448h64v-512h-64v512zM128 384h64v-384h-64v384zM384 320h64v-256h-64v256zM0 256h64v-128h-64v128z" />
    <glyph glyph-name="uniF116" unicode="&#xf116;" horiz-adv-x="513" 
d="M74 384v1l46 -46c-35 -35 -56 -81 -56 -134c0 -54 21 -102 56 -137l-46 -46c-47 46 -74 112 -74 182s28 134 74 180zM438 385v-1c47 -46 75 -110 75 -180s-29 -136 -75 -182l-46 46c35 35 57 84 57 137s-22 99 -57 134zM166 294l45 -46c-12 -12 -18 -26 -18 -44
s6 -35 18 -47l-45 -46c-23 23 -37 58 -37 93s14 67 37 90zM346 294c23 -23 38 -55 38 -90s-15 -70 -38 -93l-44 46c12 12 18 29 18 47s-6 32 -18 44z" />
    <glyph glyph-name="uniF117" unicode="&#xf117;" horiz-adv-x="256" 
d="M128 448c70 0 128 -58 128 -128s-58 -128 -128 -128s-128 58 -128 128s58 128 128 128zM64 140c20 -7 42 -12 64 -12s44 5 64 12v-204l-64 64l-64 -64v204z" />
    <glyph glyph-name="uniF118" unicode="&#xf118;" 
d="M256 448c141 0 256 -115 256 -256s-115 -256 -256 -256s-256 115 -256 256s115 256 256 256zM256 384c-106 0 -192 -86 -192 -192c0 -42 14 -81 36 -112l268 268c-31 22 -70 36 -112 36zM412 304l-268 -268c31 -22 70 -36 112 -36c106 0 192 86 192 192
c0 42 -14 81 -36 112z" />
    <glyph glyph-name="uniF119" unicode="&#xf119;" 
d="M0 448h64v-384h448v-64h-512v448zM320 448h128v-320h-128v320zM128 320h128v-192h-128v192z" />
    <glyph glyph-name="uniF11A" unicode="&#xf11a;" horiz-adv-x="511" 
d="M253 448v1c8 1 15 -3 22 -9c1 -1 137 -163 154 -184h82v-64h-64v-234c0 -12 -9 -22 -21 -22h-340c-12 0 -22 10 -22 22v234h-64v64h82l150 180c5 7 13 11 21 12zM255 367l-92 -110h185zM159 129c-18 0 -32 -14 -32 -32v-64c0 -18 14 -32 32 -32s32 14 32 32v64
c0 18 -14 32 -32 32zM351 129c-18 0 -32 -14 -32 -32v-64c0 -18 14 -32 32 -32s32 14 32 32v64c0 18 -14 32 -32 32z" />
    <glyph glyph-name="uniF11B" unicode="&#xf11b;" horiz-adv-x="511" 
d="M6 384v1h436c3 0 5 -2 5 -6v-122h64v-128h-64v-123c0 -3 -2 -5 -5 -5h-436c-3 0 -6 2 -6 5v372c0 3 2 6 6 6zM64 321v-256h320v256h-320z" />
    <glyph glyph-name="uniF11C" unicode="&#xf11c;" horiz-adv-x="511" 
d="M6 384v1h436c3 0 5 -2 5 -6v-122h64v-128h-64v-123c0 -3 -2 -5 -5 -5h-436c-3 0 -6 2 -6 5v372c0 3 2 6 6 6z" />
    <glyph glyph-name="uniF11D" unicode="&#xf11d;" horiz-adv-x="513" 
d="M86 448h1h2h2h3h3h320c18 0 32 -14 32 -32s-14 -32 -32 -32h-32v-90c6 -11 77 -148 106 -198c10 -17 22 -39 22 -68c0 -25 -10 -49 -27 -66h-2c-17 -16 -40 -26 -64 -26h-328c-25 0 -49 9 -66 26s-26 41 -26 66c0 29 12 51 22 68c29 50 100 187 106 198v90h-32h-5
c-18 0 -33 14 -33 32c0 15 13 30 28 32zM193 384v-104l-4 -6s-40 -79 -76 -146h288c-36 67 -76 146 -76 146l-4 6v104h-128z" />
    <glyph glyph-name="uniF11E" unicode="&#xf11e;" 
d="M256 448c71 0 128 -58 128 -128c0 -67 34 -126 86 -170c27 -22 42 -53 42 -86h-512c0 33 16 64 42 86c52 44 86 103 86 170c0 70 58 128 128 128zM192 0h128c0 -35 -29 -64 -64 -64s-64 29 -64 64z" />
    <glyph glyph-name="uniF11F" unicode="&#xf11f;" horiz-adv-x="352" 
d="M96 448h32l224 -160l-144 -94l144 -98l-224 -160h-32v160l-48 -48l-48 48l96 96l-96 96l48 48l48 -48v160zM160 352v-128l96 64zM160 160v-128l96 64z" />
    <glyph glyph-name="uniF120" unicode="&#xf120;" 
d="M0 448h320c71 0 128 -58 128 -128c0 -30 -11 -58 -28 -80c54 -26 92 -80 92 -144c0 -88 -72 -160 -160 -160h-352v64c35 0 64 29 64 64v256c0 35 -29 64 -64 64v64zM192 384v-128h64c35 0 64 29 64 64s-29 64 -64 64h-64zM192 192v-192h96c53 0 96 43 96 96
s-43 96 -96 96h-96z" />
    <glyph glyph-name="uniF121" unicode="&#xf121;" horiz-adv-x="320" 
d="M192 448v-192h128l-192 -320v192h-128z" />
    <glyph glyph-name="uniF122" unicode="&#xf122;" horiz-adv-x="448" 
d="M64 448h192v-192l64 64l64 -64v192h32c18 0 32 -14 32 -32v-352h-352c-18 0 -32 -14 -32 -32s14 -32 32 -32h352v-64h-352c-53 0 -96 43 -96 96v352c0 4 0 8 2 12c5 25 25 45 50 50c4 1 8 2 12 2z" />
    <glyph glyph-name="uniF123" unicode="&#xf123;" horiz-adv-x="256" 
d="M0 448h256v-512l-128 128l-128 -128v512z" />
    <glyph glyph-name="uniF124" unicode="&#xf124;" horiz-adv-x="513" 
d="M1 448h512v-64h-512v64zM1 320h-1h192v-66h130v66h190v-378c0 -3 -3 -6 -6 -6h-500c-3 0 -5 3 -5 6v378z" />
    <glyph glyph-name="uniF125" unicode="&#xf125;" horiz-adv-x="513" 
d="M193 448h128c35 0 64 -29 64 -64v-64h122c3 0 6 -2 6 -6v-154c0 -18 -14 -32 -32 -32h-448c-18 0 -32 14 -32 32v154c0 3 1 6 5 6h123v64c0 35 29 64 64 64zM193 384v-64h128v64h-128zM1 70h-1c10 -3 20 -6 32 -6h448c12 0 22 2 32 6v-128c0 -3 -3 -6 -6 -6h-500
c-3 0 -5 3 -5 6v128z" />
    <glyph glyph-name="uniF126" unicode="&#xf126;" horiz-adv-x="384" 
d="M192 448v-1c37 0 70 -10 94 -34c23 -24 34 -57 34 -94h-64c0 25 -7 39 -16 48s-23 16 -48 16c-22 0 -35 -6 -46 -19s-18 -36 -18 -61c0 -33 13 -68 18 -112h110v-64h-114c-10 -38 -31 -81 -72 -128h314v-64h-384v78l10 9c44 45 61 77 68 106h-78v64h80
c-6 32 -16 68 -16 112c0 36 10 72 32 100s56 44 96 44z" />
    <glyph glyph-name="uniF127" unicode="&#xf127;" 
d="M22 448v0h2h2h3h3h448c18 0 32 -14 32 -32v-448c0 -18 -14 -32 -32 -32h-448c-18 0 -32 14 -32 32v448v2c0 13 10 26 22 30zM97 384c-18 0 -32 -14 -32 -32s14 -32 32 -32s32 14 32 32s-14 32 -32 32zM225 384c-18 0 -32 -14 -32 -32s14 -32 32 -32h192c18 0 32 14 32 32
s-14 32 -32 32h-192zM65 256v-256h384v256h-384z" />
    <glyph glyph-name="uniF128" unicode="&#xf128;" horiz-adv-x="509" 
d="M476 446v1c1 0 2 -1 3 -2l29 -28c3 -3 2 -6 0 -9l-171 -240c-3 -3 -7 -6 -10 -8l-16 -8c-15 46 -50 81 -96 96l8 16c2 3 6 8 9 10l240 170c1 1 2 2 4 2zM170 193v0c47 0 86 -38 86 -85c0 -95 -76 -171 -170 -171c-31 0 -61 8 -86 22c51 29 86 85 86 148c0 47 37 86 84 86
z" />
    <glyph glyph-name="uniF129" unicode="&#xf129;" horiz-adv-x="458" 
d="M228 448l1 1c76 0 126 -107 76 -160c6 -4 12 -9 18 -14l84 42l8 4h6c18 0 32 -14 32 -32c0 -11 -8 -24 -18 -29l-74 -35c6 -10 12 -21 16 -32h44c18 0 32 -14 32 -32s-14 -32 -32 -32h-32c0 -15 -1 -30 -4 -43l50 -26c13 -4 23 -18 23 -31c0 -18 -14 -32 -32 -32
c-6 0 -14 3 -19 7l-42 22c-15 -29 -40 -54 -66 -70c-22 12 -38 29 -38 46v86v3v2v4v3v3v56c0 18 -14 32 -32 32c-15 0 -29 -11 -32 -26c0 -2 1 -5 1 -7s-1 -5 -1 -7v-52v-3v-3v-92c0 -18 -16 -34 -38 -46c-26 15 -50 41 -66 70l-42 -22c-5 -4 -13 -6 -19 -6
c-18 0 -32 14 -32 32c0 13 10 27 23 31l50 26c-3 13 -4 27 -4 42h-32h-3c-18 0 -32 14 -32 32c0 16 13 31 29 32h3h3h44c4 11 10 22 16 32l-74 36c-10 5 -19 18 -19 29c0 14 12 28 25 31c2 0 3 1 5 1c5 0 13 -3 17 -5l83 -42c5 5 12 10 18 14c-51 52 0 160 76 160z" />
    <glyph glyph-name="uniF12A" unicode="&#xf12a;" horiz-adv-x="448" 
d="M385 448l-1 -1h58c3 0 6 -1 6 -5v-372c0 -3 -3 -6 -6 -6h-52c-1 0 -3 -1 -5 0v384zM320 415v1v-320l-160 80v-2c-10 0 -16 -5 -18 -14l48 -114c7 -16 0 -37 -16 -44s-37 0 -44 16l-66 174h-58c-3 0 -6 2 -6 6v116c0 3 2 5 6 5h116c4 0 9 1 12 2z" />
    <glyph glyph-name="uniF12B" unicode="&#xf12b;" horiz-adv-x="447" 
d="M6 448h436c3 0 5 -2 5 -6v-500c0 -3 -2 -5 -5 -5h-436c-3 0 -6 2 -6 5v500c0 3 2 6 6 6zM64 384v-128h320v128h-320zM64 192v-64h64v64h-64zM192 192v-64h64v64h-64zM320 192v-192h64v192h-64zM64 64v-64h64v64h-64zM192 64v-64h64v64h-64z" />
    <glyph glyph-name="uniF12C" unicode="&#xf12c;" horiz-adv-x="449" 
d="M1 448h448v-128h-448v128zM1 256h-1h448v-314c0 -3 -3 -6 -6 -6h-436c-3 0 -5 3 -5 6v314zM64 192v-64h64v64h-64zM192 192v-64h64v64h-64zM320 192v-64h64v64h-64zM64 64v-64h64v64h-64zM192 64v-64h64v64h-64z" />
    <glyph glyph-name="uniF12D" unicode="&#xf12d;" horiz-adv-x="511" 
d="M263 448l-2 -1h116c4 0 6 -2 8 -5l60 -116c2 -3 6 -6 9 -6h52c3 0 5 -2 5 -6v-372c0 -3 -2 -5 -5 -5h-500c-3 0 -6 2 -6 5v283c0 53 43 96 96 96h90c4 0 8 2 9 5l60 116c2 3 5 6 8 6zM95 255c-18 0 -32 -14 -32 -32s14 -32 32 -32s32 14 32 32s-14 32 -32 32zM319 255
c-70 0 -128 -58 -128 -128s58 -128 128 -128s128 58 128 128s-58 128 -128 128zM319 191c35 0 64 -29 64 -64s-29 -64 -64 -64s-64 29 -64 64s29 64 64 64z" />
    <glyph glyph-name="uniF12E" unicode="&#xf12e;" 
d="M0 320h512l-256 -256z" />
    <glyph glyph-name="uniF12F" unicode="&#xf12f;" horiz-adv-x="256" 
d="M256 448v-512l-256 256z" />
    <glyph glyph-name="uniF130" unicode="&#xf130;" horiz-adv-x="256" 
d="M0 448l256 -256l-256 -256v512z" />
    <glyph glyph-name="uniF131" unicode="&#xf131;" 
d="M256 320l256 -256h-512z" />
    <glyph glyph-name="uniF132" unicode="&#xf132;" 
d="M27 384v0h2h1h3h3h128c11 0 23 -8 28 -18l25 -46h284c9 0 13 -8 10 -16l-52 -160c-3 -8 -12 -16 -21 -16h-224c-8 0 -19 8 -22 16l-26 80l-27 80l-5 16h-96h-6c-18 0 -32 14 -32 32c0 15 12 30 27 32zM229 64c18 0 32 -14 32 -32s-14 -32 -32 -32s-32 14 -32 32
s14 32 32 32zM421 64c18 0 32 -14 32 -32s-14 -32 -32 -32s-32 14 -32 32s14 32 32 32z" />
    <glyph glyph-name="uniF133" unicode="&#xf133;" 
d="M0 448h320v-64h-192v-192h-64l-64 -64v320zM192 320h320v-320l-64 64h-256v256z" />
    <glyph glyph-name="uniF134" unicode="&#xf134;" horiz-adv-x="502" 
d="M410 384l92 -90l-46 -46l-224 -224l-46 -46l-44 46l-96 96l-46 46l90 90l46 -46l52 -50l178 178z" />
    <glyph glyph-name="uniF135" unicode="&#xf135;" 
d="M96 384l160 -160l160 160l96 -96l-256 -256l-256 256z" />
    <glyph glyph-name="uniF136" unicode="&#xf136;" horiz-adv-x="352" 
d="M256 448l96 -96l-160 -160l160 -160l-96 -96l-256 256z" />
    <glyph glyph-name="uniF137" unicode="&#xf137;" horiz-adv-x="352" 
d="M96 448l256 -256l-256 -256l-96 96l160 160l-160 160z" />
    <glyph glyph-name="uniF138" unicode="&#xf138;" 
d="M256 384l256 -256l-96 -96l-160 160l-160 -160l-96 96z" />
    <glyph glyph-name="uniF139" unicode="&#xf139;" 
d="M256 448c141 0 256 -115 256 -256s-115 -256 -256 -256s-256 115 -256 256s115 256 256 256zM384 334l-160 -160l-64 64l-46 -46l110 -110l206 206z" />
    <glyph glyph-name="uniF13A" unicode="&#xf13a;" 
d="M256 448c141 0 256 -115 256 -256s-115 -256 -256 -256s-256 115 -256 256s115 256 256 256zM160 334l-46 -46l96 -96l-96 -96l46 -46l96 96l96 -96l46 46l-96 96l96 96l-46 46l-96 -96z" />
    <glyph glyph-name="uniF13B" unicode="&#xf13b;" horiz-adv-x="448" 
d="M224 448c18 0 32 -14 32 -32v-32h48c9 0 16 -7 16 -16v-48h-192v48c0 9 7 16 16 16h48v32c0 18 14 32 32 32zM16 384h48v-128h320v128h48c9 0 16 -7 16 -16v-416c0 -9 -7 -16 -16 -16h-416c-9 0 -16 7 -16 16v416c0 9 7 16 16 16z" />
    <glyph glyph-name="uniF13C" unicode="&#xf13c;" 
d="M256 448c141 0 256 -115 256 -256s-115 -256 -256 -256s-256 115 -256 256s115 256 256 256zM256 384c-106 0 -192 -86 -192 -192s86 -192 192 -192s192 86 192 192s-86 192 -192 192zM224 320v-1h64v-116l22 -22l24 -22l-46 -46l-22 25l-32 32l-10 8v142z" />
    <glyph glyph-name="uniF1E0" unicode="&#xf1e0;" 
d="M0 240c0 9 7 16 16 16h480c9 0 16 -7 16 -16v-96c0 -9 -7 -16 -16 -16h-480c-9 0 -16 7 -16 16v96z" />
    <glyph glyph-name="uniF13D" unicode="&#xf13d;" 
d="M288 448c88 0 160 -72 160 -160v-32c37 -13 64 -54 64 -96c0 -12 -2 -22 -6 -32h-122v32c0 53 -43 96 -96 96s-96 -43 -96 -96v-32h-174c-11 19 -18 40 -18 64c0 70 58 128 128 128c15 73 83 128 160 128zM278 192v0h2h2c2 0 4 1 6 1c18 0 32 -14 32 -32v-1v-96h96
l-128 -128l-128 128h96v96v2c0 13 10 26 22 30z" />
    <glyph glyph-name="uniF13E" unicode="&#xf13e;" 
d="M288 448c88 0 160 -72 160 -160v-32c37 -13 64 -54 64 -96c0 -12 -2 -22 -6 -32h-90l-128 128l-128 -128h-142c-11 19 -18 40 -18 64c0 70 58 128 128 128c15 73 83 128 160 128zM288 160l160 -160h-128v-32c0 -18 -14 -32 -32 -32s-32 14 -32 32v32h-128z" />
    <glyph glyph-name="uniF13F" unicode="&#xf13f;" 
d="M288 384c88 0 160 -72 160 -160v-32c37 -13 64 -54 64 -96c0 -53 -43 -96 -96 -96h-288c-70 0 -128 58 -128 128s58 128 128 128c15 73 83 128 160 128z" />
    <glyph glyph-name="uniF140" unicode="&#xf140;" 
d="M160 448c52 0 99 -26 128 -64c-92 0 -173 -54 -208 -134c-23 -6 -45 -17 -64 -30c-10 20 -16 43 -16 68c0 88 72 160 160 160zM288 320c88 0 160 -72 160 -160v-32c37 -13 64 -54 64 -96c0 -53 -43 -96 -96 -96h-288c-70 0 -128 58 -128 128s58 128 128 128
c15 73 83 128 160 128z" />
    <glyph glyph-name="uniF141" unicode="&#xf141;" 
d="M320 384h64l-192 -384h-64zM64 320h64l-64 -128l64 -128h-64l-64 128zM384 320h64l64 -128l-64 -128h-64l64 128z" />
    <glyph glyph-name="uniF142" unicode="&#xf142;" horiz-adv-x="513" 
d="M225 448h64l32 -76c6 -3 12 -5 18 -8l76 32l46 -47l-32 -76c3 -6 6 -12 8 -18l76 -32v-64l-76 -32c-3 -6 -5 -12 -8 -18l32 -76l-46 -46l-76 32c-6 -3 -12 -5 -18 -8l-32 -76h-64l-32 76c-6 3 -12 5 -18 8l-76 -32l-47 46l32 76c-3 6 -5 12 -8 18l-76 32v64l76 32
c3 6 5 12 8 18l-32 76l47 47l76 -32c6 3 12 6 18 8zM257 288c-53 0 -96 -43 -96 -96s43 -96 96 -96s96 43 96 96s-43 96 -96 96z" />
    <glyph glyph-name="uniF143" unicode="&#xf143;" 
d="M0 448h512v-128h-512v128zM128 256h256l-128 -128zM0 0h512v-64h-512v64z" />
    <glyph glyph-name="uniF144" unicode="&#xf144;" 
d="M0 448h64v-512h-64v512zM384 448h128v-512h-128v512zM320 320v-256l-128 128z" />
    <glyph glyph-name="uniF145" unicode="&#xf145;" 
d="M0 448h128v-512h-128v512zM448 448h64v-512h-64v512zM192 320l128 -128l-128 -128v256z" />
    <glyph glyph-name="uniF146" unicode="&#xf146;" 
d="M0 448h512v-64h-512v64zM256 256l128 -128h-256zM0 64h512v-128h-512v128z" />
    <glyph glyph-name="uniF147" unicode="&#xf147;" horiz-adv-x="448" 
d="M96 448c53 0 96 -43 96 -96v-32h64v32c0 53 43 96 96 96s96 -43 96 -96s-43 -96 -96 -96h-32v-64h32c53 0 96 -43 96 -96s-43 -96 -96 -96s-96 43 -96 96v32h-64v-32c0 -53 -43 -96 -96 -96s-96 43 -96 96s43 96 96 96h32v64h-32c-53 0 -96 43 -96 96s43 96 96 96z
M96 384c-18 0 -32 -14 -32 -32s14 -32 32 -32h32v32c0 18 -14 32 -32 32zM352 384c-18 0 -32 -14 -32 -32v-32h32c18 0 32 14 32 32s-14 32 -32 32zM192 256v-64h64v64h-64zM96 128c-18 0 -32 -14 -32 -32s14 -32 32 -32s32 14 32 32v32h-32zM320 128v-32
c0 -18 14 -32 32 -32s32 14 32 32s-14 32 -32 32h-32z" />
    <glyph glyph-name="uniF148" unicode="&#xf148;" 
d="M6 448v1h500c3 0 6 -2 6 -6v-506l-128 128h-378c-3 0 -6 2 -6 5v372c0 3 2 6 6 6z" />
    <glyph glyph-name="uniF149" unicode="&#xf149;" 
d="M256 448c141 0 256 -115 256 -256s-115 -256 -256 -256s-256 115 -256 256s115 256 256 256zM256 384c-106 0 -192 -86 -192 -192s86 -192 192 -192s192 86 192 192s-86 192 -192 192zM384 320l-64 -192l-192 -64l64 192zM256 224c-18 0 -32 -14 -32 -32s14 -32 32 -32
s32 14 32 32s-14 32 -32 32z" />
    <glyph glyph-name="uniF14A" unicode="&#xf14a;" 
d="M256 448c141 0 256 -115 256 -256s-115 -256 -256 -256s-256 115 -256 256s115 256 256 256zM256 384v-384c106 0 192 86 192 192s-86 192 -192 192z" />
    <glyph glyph-name="uniF14B" unicode="&#xf14b;" 
d="M0 448h512v-64h-512v64zM0 320h320v-64h-320v64zM0 128h512v-64h-512v64zM0 0h384v-64h-384v64zM480 0c18 0 32 -14 32 -32s-14 -32 -32 -32s-32 14 -32 32s14 32 32 32z" />
    <glyph glyph-name="uniF14C" unicode="&#xf14c;" 
d="M16 384h480c9 0 16 -7 16 -16v-48h-512v48c0 9 7 16 16 16zM0 256h512v-240c0 -9 -7 -16 -16 -16h-480c-9 0 -16 7 -16 16v240zM64 128v-64h64v64h-64zM192 128v-64h64v64h-64z" />
    <glyph glyph-name="uniF14D" unicode="&#xf14d;" 
d="M64 448h64v-64h288l64 64l32 -32l-64 -64v-288h64v-64h-64v-64h-64v64h-320v320h-64v64h64v64zM128 320v-224l224 224h-224zM384 288l-224 -224h224v224z" />
    <glyph glyph-name="uniF14E" unicode="&#xf14e;" 
d="M256 448c141 0 256 -115 256 -256s-115 -256 -256 -256s-256 115 -256 256s115 256 256 256zM256 384c-106 0 -192 -86 -192 -192s86 -192 192 -192s192 86 192 192s-86 192 -192 192zM256 320c18 0 32 -14 32 -32s-14 -32 -32 -32s-32 14 -32 32s14 32 32 32zM150 256v1
h2h2h4c8 0 19 -5 24 -11l58 -58c5 1 10 4 16 4c35 0 64 -29 64 -64s-29 -64 -64 -64s-64 29 -64 64c0 6 3 11 4 16l-58 58c-6 5 -10 16 -10 24c0 13 10 26 22 30zM352 257c18 0 32 -14 32 -32s-14 -32 -32 -32s-32 14 -32 32s14 32 32 32z" />
    <glyph glyph-name="uniF14F" unicode="&#xf14f;" 
d="M192 448h128v-192h128l-192 -192l-192 192h128v192zM0 0h512v-64h-512v64z" />
    <glyph glyph-name="uniF150" unicode="&#xf150;" 
d="M0 448h512v-64h-512v64zM256 320l192 -192h-128v-192h-128v192h-128z" />
    <glyph glyph-name="uniF151" unicode="&#xf151;" 
d="M128 384h384v-384h-384l-128 192zM224 334l-46 -46l96 -96l-96 -96l46 -46l96 96l96 -96l46 46l-96 96l96 96l-46 46l-96 -96z" />
    <glyph glyph-name="uniF152" unicode="&#xf152;" 
d="M256 384c141 0 256 -115 256 -256h-64c0 106 -86 192 -192 192s-192 -86 -192 -192h-64c0 141 115 256 256 256zM218 250l38 -56l38 56c52 -17 90 -64 90 -122c0 -71 -57 -128 -128 -128c-70 0 -128 57 -128 128c0 58 38 106 90 122z" />
    <glyph glyph-name="uniF1E1" unicode="&#xf1e1;" 
d="M507 37c2 -2 3 -4 4 -6c2 -6 1 -12 -4 -17l-73 -73c-5 -5 -11 -6 -17 -4c-2 1 -4 2 -6 4v0l-155 155l-155 -155v0c-2 -2 -4 -3 -6 -4c-6 -2 -12 -1 -17 4l-73 73c-5 5 -6 11 -4 17c1 2 2 4 4 6v0l155 155l-155 155v0c-2 2 -3 4 -4 6c-2 6 -1 12 4 17l73 73c5 5 11 6 17 4
c2 -1 4 -2 6 -4v0l155 -155l155 155v0c2 2 4 3 6 4c6 2 12 1 17 -4l73 -73c5 -5 6 -11 4 -17c-1 -2 -2 -4 -4 -6v0l-155 -155l155 -155v0z" />
    <glyph glyph-name="uniF1E2" unicode="&#xf1e2;" horiz-adv-x="384" 
d="M288 448l96 -64v-128h-384v128l96 64h192zM256 288v53c0 6 -5 11 -11 11h-106c-6 0 -11 -5 -11 -11v-53h32v21c0 6 5 11 11 11h42c6 0 11 -5 11 -11v-21h32zM0 96v128h384v-128h-384zM128 181v-53h32v21c0 6 5 11 11 11h42c6 0 11 -5 11 -11v-21h32v53c0 6 -5 11 -11 11
h-106c-6 0 -11 -5 -11 -11zM0 -64v128h384v-128h-384zM128 21v-53h32v21c0 6 5 11 11 11h42c6 0 11 -5 11 -11v-21h32v53c0 6 -5 11 -11 11h-106c-6 0 -11 -5 -11 -11z" />
    <glyph glyph-name="uniF1E3" unicode="&#xf1e3;" horiz-adv-x="503" 
d="M411 9c-7 0 -14 3 -19 8c-11 11 -11 28 0 39c75 75 75 197 0 272c-11 11 -11 28 0 39s27 11 38 0c47 -47 73 -109 73 -175s-26 -127 -73 -174c-5 -5 -12 -9 -19 -9v0zM314 61c-7 0 -15 3 -20 8c-11 11 -11 28 0 39c46 46 46 122 0 168c-11 11 -11 28 0 39s28 11 39 0
c68 -68 68 -178 0 -246c-5 -5 -12 -8 -19 -8v0zM229 440c15 15 27 10 27 -11v-474c0 -21 -12 -26 -27 -11l-138 138h-91v220h91z" />
    <glyph glyph-name="uniF1E4" unicode="&#xf1e4;" horiz-adv-x="448" 
d="M420 348c16 -16 28 -46 28 -68v-304c0 -22 -18 -40 -40 -40h-368c-22 0 -40 18 -40 40v432c0 22 18 40 40 40h240c22 0 52 -12 68 -28zM397 326l-71 71c-2 2 -4 3 -6 5v-82h82c-2 2 -3 4 -5 6zM416 -24v304c0 2 0 5 -1 8h-127v127c-3 1 -6 1 -8 1h-240c-4 0 -8 -4 -8 -8
v-432c0 -4 4 -8 8 -8h368c4 0 8 4 8 8z" />
    <glyph glyph-name="uniF1E5" unicode="&#xf1e5;" horiz-adv-x="448" 
d="M420 348c16 -16 28 -46 28 -68v-304c0 -22 -18 -40 -40 -40h-368c-22 0 -40 18 -40 40v432c0 22 18 40 40 40h240c22 0 52 -12 68 -28zM320 402v-82h82c-2 2 -3 4 -5 6l-71 71c-2 2 -4 3 -6 5zM416 -24v304c0 2 0 5 -1 8h-127v127c-3 1 -6 1 -8 1h-240c-4 0 -8 -4 -8 -8
v-432c0 -4 4 -8 8 -8h368c4 0 8 4 8 8zM96 192h256v-32h-256v32zM96 64h256v-32h-256v32zM96 128h256v-32h-256v32z" />
    <glyph glyph-name="uniF1E6" unicode="&#xf1e6;" 
d="M0 304h512l-32 -320h-448zM464 368l16 -32h-448l32 64h176l16 -32h208z" />
    <glyph glyph-name="uniF1E7" unicode="&#xf1e7;" 
d="M0 416h512v-448h-512v448zM480 0v384h-448v-384h448zM352 304c0 26 22 48 48 48s48 -22 48 -48s-22 -48 -48 -48s-48 22 -48 48zM448 32h-384l96 256l128 -160l64 48z" />
    <glyph glyph-name="uniF1E8" unicode="&#xf1e8;" horiz-adv-x="448" 
d="M389 153v0c2 -2 5 -5 5 -8c1 -9 0 -19 -4 -26c-2 -3 -7 -6 -11 -7c-3 -1 -6 -1 -10 -1c-23 0 -59 11 -89 28c-39 -6 -83 -16 -122 -29c-34 -59 -59 -85 -80 -85c-4 0 -7 1 -11 3l-8 4c-5 3 -6 10 -5 15c3 16 22 35 52 53c3 2 18 11 19 11l9 4c8 14 18 32 28 52l1 2
c10 19 21 41 30 62l3 8c-12 47 -20 83 -13 107c2 8 11 13 21 13h5c9 0 15 -7 18 -14l1 -2c1 -2 1 -3 1 -6c3 -21 -8 -82 -8 -82c-1 -2 0 -4 -1 -7c10 -27 26 -53 45 -71c7 -7 16 -12 25 -17c20 3 38 4 54 4c23 0 38 -4 45 -11zM74 41v0c10 5 26 19 50 57c-3 -3 -8 -6 -9 -7
c-23 -18 -37 -39 -41 -50zM207 348c-3 0 -3 -24 -3 -24c0 -13 2 -33 6 -45c5 8 8 20 8 36s-4 33 -11 33zM167 129v0c26 10 56 18 90 25c-2 2 -5 3 -7 5c-17 14 -31 32 -42 53c-6 -15 -14 -33 -26 -56c-5 -9 -10 -19 -15 -27zM382 131v0c2 1 2 8 -10 11s-16 3 -28 3
c-7 0 -14 0 -22 -1c21 -9 37 -15 49 -15c4 0 9 1 11 2zM420 348c16 -16 28 -46 28 -68v-304c0 -22 -18 -40 -40 -40h-368c-22 0 -40 18 -40 40v432c0 22 18 40 40 40h240c22 0 52 -12 68 -28zM397 326l-71 71c-2 2 -4 3 -6 5v-82h82c-2 2 -3 4 -5 6zM416 -24v304
c0 2 0 5 -1 8h-127v127c-3 1 -6 1 -8 1h-240c-4 0 -8 -4 -8 -8v-432c0 -4 4 -8 8 -8h368c4 0 8 4 8 8z" />
    <glyph glyph-name="uniF1E9" unicode="&#xf1e9;" horiz-adv-x="448" 
d="M420 348c16 -16 28 -46 28 -68v-304c0 -22 -18 -40 -40 -40h-368c-22 0 -40 18 -40 40v432c0 22 18 40 40 40h240c22 0 52 -12 68 -28zM320 402v-82h82c-2 2 -3 4 -5 6l-71 71c-2 2 -4 3 -6 5zM416 -24v304c0 2 0 5 -1 8h-127v127c-3 1 -6 1 -8 1h-240c-4 0 -8 -4 -8 -8
v-432c0 -4 4 -8 8 -8h368c4 0 8 4 8 8zM96 192h256v-160h-256v160zM128 128h80v32h-80v-32zM208 96h-80v-32h80v32zM320 64v32h-80v-32h80zM320 128v32h-80v-32h80z" />
    <glyph glyph-name="uniF1EA" unicode="&#xf1ea;" 
d="M0 384h512v-384h-512v384zM96 32v64h-64v-64h64zM96 160v64h-64v-64h64zM96 288v64h-64v-64h64zM384 32v320h-256v-320h256zM480 32v64h-64v-64h64zM480 160v64h-64v-64h64zM480 288v64h-64v-64h64zM192 288l128 -96l-128 -96v192z" />
    <glyph glyph-name="uniF153" unicode="&#xf153;" horiz-adv-x="448" 
d="M0 448h192v-256h256v-256h-448v512zM256 448l192 -192h-192v192zM64 320v-64h64v64h-64zM64 192v-64h64v64h-64zM64 64v-64h256v64h-256z" />
    <glyph glyph-name="uniF154" unicode="&#xf154;" horiz-adv-x="321" 
d="M129 448h64v-64h48c19 0 36 -4 51 -14s29 -28 29 -50v-64h-64v60c-3 1 -9 4 -16 4h-160c-9 0 -16 -7 -16 -16v-32c0 -10 12 -25 21 -28l164 -42c42 -11 70 -47 70 -91v-32c0 -44 -36 -80 -80 -80h-48v-64h-64v64h-48c-19 0 -37 4 -52 14s-28 28 -28 50v64h64v-60
c3 -1 8 -4 16 -4h160c9 0 16 7 16 16v32c0 10 -13 26 -22 29l-164 42c-42 11 -69 46 -69 90v32c0 44 36 80 80 80h48v64z" />
    <glyph glyph-name="uniF155" unicode="&#xf155;" 
d="M0 384h192v-192l-192 -192v384zM320 384h192v-192l-192 -192v384z" />
    <glyph glyph-name="uniF156" unicode="&#xf156;" 
d="M192 384v-384h-192v192zM512 384v-384h-192v192z" />
    <glyph glyph-name="uniF157" unicode="&#xf157;" 
d="M192 384v-64c-71 0 -128 -57 -128 -128h128v-192h-192v192c0 106 86 192 192 192zM512 384v-64c-71 0 -128 -57 -128 -128h128v-192h-192v192c0 106 86 192 192 192z" />
    <glyph glyph-name="uniF158" unicode="&#xf158;" 
d="M0 384h192v-192c0 -106 -86 -192 -192 -192v64c71 0 128 57 128 128h-128v192zM320 384h192v-192c0 -106 -86 -192 -192 -192v64c71 0 128 57 128 128h-128v192z" />
    <glyph glyph-name="uniF159" unicode="&#xf159;" horiz-adv-x="384" 
d="M192 448l22 -22c7 -7 170 -172 170 -312c0 -106 -86 -192 -192 -192s-192 86 -192 192c0 140 163 305 170 312zM96 146c-18 0 -32 -14 -32 -32c0 -70 58 -128 128 -128c18 0 32 14 32 32s-14 32 -32 32c-35 0 -64 29 -64 64c0 18 -14 32 -32 32z" />
    <glyph glyph-name="uniF15A" unicode="&#xf15a;" 
d="M256 448l256 -320h-512zM0 64h512v-128h-512v128z" />
    <glyph glyph-name="uniF15B" unicode="&#xf15b;" horiz-adv-x="384" 
d="M192 448l192 -192h-384zM0 128h384l-192 -192z" />
    <glyph glyph-name="uniF15C" unicode="&#xf15c;" 
d="M0 256h128v-128h-128v128zM192 256h128v-128h-128v128zM384 256h128v-128h-128v128z" />
    <glyph glyph-name="uniF1EB" unicode="&#xf1eb;" 
d="M432 392l80 -80l-320 -320l-192 192l80 80l112 -112z" />
    <glyph glyph-name="uniF15D" unicode="&#xf15d;" 
d="M0 384h512v-64l-256 -128l-256 128v64zM0 256l256 -128l256 128v-256h-512v256z" />
    <glyph glyph-name="uniF15E" unicode="&#xf15e;" 
d="M256 448l256 -128v-384h-512v384zM256 376l-192 -96v-121l192 -96l192 96v121zM128 255h256v-64l-128 -64l-128 64v64z" />
    <glyph glyph-name="uniF15F" unicode="&#xf15f;" horiz-adv-x="513" 
d="M384 448h1c45 0 86 -12 122 -32l-10 -68c-31 22 -70 36 -112 36c-83 0 -154 -54 -180 -128h212l-11 -64h-213c0 -23 5 -44 12 -64h190l-10 -64h-142c35 -39 85 -64 142 -64c50 0 94 19 128 50v-78c-38 -22 -81 -36 -128 -36c-94 0 -176 52 -221 128h-163l12 64h126
c-6 20 -10 42 -10 64h-129l16 64h122c28 110 127 192 246 192z" />
    <glyph glyph-name="uniF160" unicode="&#xf160;" 
d="M0 448h448v-64h-448v64zM0 320h320v-64h-320v64zM0 192h512v-64h-512v64zM0 64h64v-64h-64v64zM128 64h64v-64h-64v64zM256 64h64v-64h-64v64z" />
    <glyph glyph-name="uniF161" unicode="&#xf161;" 
d="M0 448h512v-64h-512v64zM128 320h256l-128 -128zM0 64h512v-128h-512v128z" />
    <glyph glyph-name="uniF162" unicode="&#xf162;" 
d="M0 448h64v-512h-64v512zM384 448h128v-512h-128v512zM128 320l128 -128l-128 -128v256z" />
    <glyph glyph-name="uniF163" unicode="&#xf163;" 
d="M0 448h128v-512h-128v512zM448 448h64v-512h-64v512zM384 320v-256l-128 128z" />
    <glyph glyph-name="uniF164" unicode="&#xf164;" 
d="M0 448h512v-128h-512v128zM256 192l128 -128h-256zM0 0h512v-64h-512v64z" />
    <glyph glyph-name="uniF165" unicode="&#xf165;" 
d="M0 448h128v-64h-64v-384h384v64h64v-128h-512v512zM256 448h256v-256l-96 96l-160 -160l-64 64l160 160z" />
    <glyph glyph-name="uniF166" unicode="&#xf166;" 
d="M258 384c158 0 254 -192 254 -192s-96 -192 -254 -192c-162 0 -258 192 -258 192s96 192 258 192zM256 320c-70 0 -128 -58 -128 -128c0 -71 58 -128 128 -128c71 0 128 57 128 128c0 70 -57 128 -128 128zM256 256c6 0 12 -2 18 -4c-10 -5 -18 -15 -18 -28
c0 -18 14 -32 32 -32c13 0 23 8 28 18c1 -6 4 -12 4 -18c0 -35 -29 -64 -64 -64s-64 29 -64 64s29 64 64 64z" />
    <glyph glyph-name="uniF167" unicode="&#xf167;" horiz-adv-x="514" 
d="M212 448v1h2h2h6c8 0 19 -5 24 -11l61 -60l42 42c36 36 100 36 136 0c38 -38 38 -99 0 -136l-42 -42l60 -60c6 -5 11 -16 11 -24c0 -18 -14 -32 -32 -32c-8 0 -20 6 -25 12l-40 42l-235 -234l-10 -11h-172v174l10 11l230 234l-40 40c-6 5 -10 16 -10 24c0 13 10 26 22 30
zM287 308l-201 -202l82 -84l203 203z" />
    <glyph glyph-name="uniF168" unicode="&#xf168;" horiz-adv-x="448" 
d="M0 448h192v-256h256v-256h-448v512zM256 448l192 -192h-192v192z" />
    <glyph glyph-name="uniF1EC" unicode="&#xf1ec;" 
d="M510 434c4 -10 2 -19 -5 -26l-179 -179v-269c0 -10 -5 -18 -14 -22c-3 -1 -6 -2 -9 -2c-7 0 -13 2 -17 7l-93 93c-5 5 -7 11 -7 17v176l-179 179c-7 7 -9 16 -5 26c4 9 12 14 22 14h464c10 0 18 -5 22 -14z" />
    <glyph glyph-name="uniF169" unicode="&#xf169;" horiz-adv-x="448" 
d="M128 448c0 0 128 -64 128 -192s-191 -193 -128 -320c0 0 -128 64 -128 192s192 192 128 320zM320 256c0 0 128 -64 128 -192c0 -96 -38 -128 -64 -128h-192c0 128 192 192 128 320z" />
    <glyph glyph-name="uniF16A" unicode="&#xf16a;" 
d="M0 448h64v-512h-64v512zM128 448h192v-64h192l-128 -130l128 -126h-256v64h-128v256z" />
    <glyph glyph-name="uniF16B" unicode="&#xf16b;" horiz-adv-x="256" 
d="M96 448h96l-64 -128h128l-96 -192h96l-192 -192l-64 192h86l42 128h-128z" />
    <glyph glyph-name="uniF1ED" unicode="&#xf1ed;" 
d="M0 304h512l-32 -320h-448zM464 368l16 -32h-448l32 64h176l16 -32h208z" />
    <glyph glyph-name="uniF1EE" unicode="&#xf1ee;" 
d="M416 -16h-416l96 256h416zM64 272l-64 -288v416h144l64 -64h208v-64h-352z" />
    <glyph glyph-name="uniF16C" unicode="&#xf16c;" 
d="M0 448h192v-64h320v-64h-512v128zM0 256h512v-288c0 -18 -14 -32 -32 -32h-448c-18 0 -32 14 -32 32v288z" />
    <glyph glyph-name="uniF16D" unicode="&#xf16d;" horiz-adv-x="448" 
d="M96 448c53 0 96 -43 96 -96c0 -42 -26 -77 -64 -90v-76c10 3 21 5 32 5h128c18 0 32 14 32 32v38c-38 13 -64 48 -64 90c0 53 43 96 96 96s96 -43 96 -96c0 -42 -26 -77 -64 -90v-38c0 -52 -44 -96 -96 -96h-128c-8 0 -16 -4 -22 -10c32 -15 54 -48 54 -86
c0 -53 -43 -96 -96 -96s-96 43 -96 96c0 42 26 78 64 91v140c-38 13 -64 48 -64 90c0 53 43 96 96 96z" />
    <glyph glyph-name="uniF16E" unicode="&#xf16e;" 
d="M0 448h256l-96 -96l96 -96l-64 -64l-96 96l-96 -96v256zM320 192l96 -96l96 96v-256h-256l96 96l-96 96z" />
    <glyph glyph-name="uniF16F" unicode="&#xf16f;" 
d="M64 448l96 -96l96 96v-256h-256l96 96l-96 96zM256 192h256l-96 -96l96 -96l-64 -64l-96 96l-96 -96v256z" />
    <glyph glyph-name="uniF170" unicode="&#xf170;" 
d="M256 448c141 0 256 -115 256 -256s-115 -256 -256 -256s-256 115 -256 256s115 256 256 256zM256 384v-1c-36 0 -69 -11 -98 -28c6 -6 10 -10 14 -12c20 -12 9 -31 -8 -38c-19 -8 -50 7 -42 -26c8 -35 -17 -2 -30 -10c-28 -16 31 -97 19 -100c-9 -3 -25 22 -37 22
c-5 0 -9 -3 -11 -6c1 -19 7 -37 13 -54c18 -7 49 -1 64 -16c30 -18 62 -74 48 -102c21 -8 43 -14 67 -14c65 0 123 31 158 80c2 15 -5 29 -32 29c-44 0 -99 9 -97 62c1 29 64 70 42 92c-19 20 8 25 8 42c0 24 -41 20 -44 32s13 23 26 36c-19 6 -39 12 -60 12zM404 314
c-24 -7 -60 -22 -56 -34c4 -10 34 -1 42 -9c8 -6 10 -37 28 -19c7 7 11 10 14 14v2c-8 17 -16 32 -28 46z" />
    <glyph glyph-name="uniF171" unicode="&#xf171;" 
d="M450 448l62 -64l-256 -256l-64 64l-128 -130l-64 64l192 194l64 -64zM0 0h512v-64h-512v64z" />
    <glyph glyph-name="uniF172" unicode="&#xf172;" horiz-adv-x="448" 
d="M0 448h64v-64h-64v64zM128 448h64v-64h-64v64zM256 448h64v-64h-64v64zM384 448h64v-64h-64v64zM0 320h64v-64h-64v64zM128 320h64v-64h-64v64zM256 320h64v-64h-64v64zM384 320h64v-64h-64v64zM0 192h64v-64h-64v64zM128 192h64v-64h-64v64zM256 192h64v-64h-64v64z
M384 192h64v-64h-64v64zM0 64h64v-64h-64v64zM128 64h64v-64h-64v64zM256 64h64v-64h-64v64zM384 64h64v-64h-64v64z" />
    <glyph glyph-name="uniF173" unicode="&#xf173;" 
d="M0 448h128v-128h-128v128zM192 448h128v-128h-128v128zM384 448h128v-128h-128v128zM0 256h128v-128h-128v128zM192 256h128v-128h-128v128zM384 256h128v-128h-128v128zM0 64h128v-128h-128v128zM192 64h128v-128h-128v128zM384 64h128v-128h-128v128z" />
    <glyph glyph-name="uniF174" unicode="&#xf174;" 
d="M0 448h192v-192h-192v192zM320 448h192v-192h-192v192zM0 128h192v-192h-192v192zM320 128h192v-192h-192v192z" />
    <glyph glyph-name="uniF175" unicode="&#xf175;" horiz-adv-x="449" 
d="M13 448h-1h424c7 0 13 -5 13 -12v-212c0 -18 -14 -32 -32 -32h-384c-18 0 -32 14 -32 32v212c0 7 5 12 12 12zM0 134h1c10 -3 20 -6 32 -6h384c12 0 22 2 32 6v-186c0 -7 -6 -13 -13 -13h-424c-7 0 -12 6 -12 13v186zM353 64c-18 0 -32 -14 -32 -32s14 -32 32 -32
s32 14 32 32s-14 32 -32 32z" />
    <glyph glyph-name="uniF176" unicode="&#xf176;" horiz-adv-x="448" 
d="M0 448h192v-64h-32c-18 0 -32 -14 -32 -32v-96h192v96c0 18 -14 32 -32 32h-32v64h192v-64h-32c-18 0 -32 -14 -32 -32v-256c0 -18 14 -32 32 -32h32v-64h-192v64h32c18 0 32 14 32 32v96h-192v-96c0 -18 14 -32 32 -32h32v-64h-192v64h32c18 0 32 14 32 32v256
c0 18 -14 32 -32 32h-32v64z" />
    <glyph glyph-name="uniF177" unicode="&#xf177;" 
d="M256 448c106 0 192 -86 192 -192v-64h32c18 0 32 -14 32 -32v-128c0 -18 -14 -32 -32 -32h-64c-18 0 -32 14 -32 32v224c0 71 -57 128 -128 128s-128 -57 -128 -128v-224c0 -18 -14 -32 -32 -32h-64c-18 0 -32 14 -32 32v128c0 18 14 32 32 32h32v64
c0 106 86 192 192 192z" />
    <glyph glyph-name="uniF178" unicode="&#xf178;" 
d="M128 384c36 0 67 -15 90 -38c23 -24 38 -55 38 -90c0 36 15 67 38 90c24 23 55 38 90 38c36 0 67 -15 90 -38c23 -24 38 -55 38 -90c0 -36 -15 -67 -38 -90l-218 -218l-218 218c-23 24 -38 55 -38 90c0 36 15 67 38 90c24 23 55 38 90 38z" />
    <glyph glyph-name="uniF179" unicode="&#xf179;" 
d="M256 448l256 -192l-64 2v-258h-128v128h-128v-128h-128v256h-64z" />
    <glyph glyph-name="uniF17A" unicode="&#xf17a;" 
d="M0 448h512v-512h-512v512zM64 384v-192l64 64l256 -256h64v64l-128 128l64 64l64 -64v192h-384z" />
    <glyph glyph-name="uniF17B" unicode="&#xf17b;" horiz-adv-x="513" 
d="M12 448h488c7 0 13 -5 13 -12v-488c0 -7 -6 -13 -13 -13h-488c-7 0 -12 6 -12 13v488c0 7 5 12 12 12zM64 320v-192h64l64 -64h128l64 64h64v192h-384z" />
    <glyph glyph-name="uniF17C" unicode="&#xf17c;" 
d="M128 320c51 0 91 -36 128 -78c37 42 76 78 128 78c84 0 128 -65 128 -128s-44 -128 -128 -128c-52 0 -91 36 -128 78c-37 -42 -77 -78 -128 -78c-84 0 -128 65 -128 128s44 128 128 128zM128 256c-47 0 -64 -35 -64 -64s17 -64 64 -64c27 0 57 30 86 64
c-29 34 -59 64 -86 64zM384 256c-28 0 -57 -30 -86 -64c29 -34 58 -64 86 -64c47 0 64 35 64 64s-17 64 -64 64z" />
    <glyph glyph-name="uniF17D" unicode="&#xf17d;" horiz-adv-x="256" 
d="M192 448c35 0 64 -29 64 -64s-29 -64 -64 -64s-64 29 -64 64s29 64 64 64zM96 288c53 0 96 -44 96 -96c0 -42 -64 -137 -64 -160c0 -18 14 -32 32 -32s32 14 32 32h64c0 -53 -43 -96 -96 -96s-96 41 -96 96s64 142 64 160s-14 32 -32 32s-32 -14 -32 -32h-64
c0 53 43 96 96 96z" />
    <glyph glyph-name="uniF17E" unicode="&#xf17e;" horiz-adv-x="447" 
d="M127 448h320v-64h-78l-21 -56l-128 -320l-4 -9h104v-64h-320v64h78l22 57l128 320l4 8h-105v64z" />
    <glyph glyph-name="uniF17F" unicode="&#xf17f;" 
d="M0 448h512v-64h-512v64zM0 320h512v-64h-512v64zM0 192h512v-64h-512v64zM64 64h384v-64h-384v64z" />
    <glyph glyph-name="uniF180" unicode="&#xf180;" 
d="M0 448h512v-64h-512v64zM0 320h512v-64h-512v64zM0 192h512v-64h-512v64zM0 64h384v-64h-384v64z" />
    <glyph glyph-name="uniF181" unicode="&#xf181;" 
d="M0 448h512v-64h-512v64zM0 320h512v-64h-512v64zM0 192h512v-64h-512v64zM128 64h384v-64h-384v64z" />
    <glyph glyph-name="uniF182" unicode="&#xf182;" 
d="M352 448c88 0 160 -72 160 -160s-72 -160 -160 -160c-10 0 -20 0 -30 2l-2 -2v-64h-128v-128h-192v128l194 194c-2 10 -2 20 -2 30c0 88 72 160 160 160zM384 384c-35 0 -64 -29 -64 -64s29 -64 64 -64s64 29 64 64s-29 64 -64 64z" />
    <glyph glyph-name="uniF183" unicode="&#xf183;" horiz-adv-x="513" 
d="M86 384h1h2h2h3h3h320c18 0 32 -14 32 -32v-224h64v-96c0 -18 -14 -32 -32 -32h-449c-18 0 -32 14 -32 32v96h64v224v2c0 13 10 26 22 30zM129 320v-192h64v-64h128v64h64v192h-256z" />
    <glyph glyph-name="uniF184" unicode="&#xf184;" 
d="M0 448h256v-256h-256v256zM320 320h64v-256h-256v64h192v192zM448 192h64v-256h-256v64h192v192z" />
    <glyph glyph-name="uniF185" unicode="&#xf185;" horiz-adv-x="325" 
d="M223 448h6c18 0 32 -14 32 -32c0 -11 -8 -23 -18 -28l-192 -96c-5 -4 -13 -7 -19 -7c-18 0 -32 14 -32 32c0 13 10 27 23 31l192 96zM287 352h6c18 0 32 -14 32 -32c0 -11 -8 -23 -18 -28l-256 -128c-5 -4 -13 -7 -19 -7c-18 0 -32 14 -32 32c0 13 10 27 23 31l256 128z
M287 224h6c18 0 32 -14 32 -32c0 -11 -8 -23 -18 -28l-68 -36c15 -2 28 -17 28 -32c0 -18 -15 -32 -33 -32h-5h-128c-17 1 -31 15 -31 32c0 11 8 23 17 28l192 96zM124 0v0h2h2h3h3h64c18 0 32 -14 32 -32s-14 -32 -32 -32h-64h-5c-18 0 -33 14 -33 32c0 15 13 30 28 32z
" />
    <glyph glyph-name="uniF186" unicode="&#xf186;" horiz-adv-x="511" 
d="M126 448h64v-128h-128v64h64v64zM375 446v-1c12 1 24 2 36 -1c23 -5 44 -16 62 -34c50 -49 50 -130 0 -180l-96 -96c-5 -8 -17 -15 -27 -15c-18 0 -32 14 -32 32c0 10 7 22 15 27l96 96c25 26 25 67 0 92c-18 19 -46 22 -68 14c-9 -3 -17 -7 -24 -14l-28 -28
c-5 -8 -17 -15 -27 -15c-18 0 -32 14 -32 32c0 10 7 22 15 27l28 28c14 14 31 24 48 30c11 4 22 5 34 6zM146 259h-1h2h2s4 1 5 1c18 0 32 -14 32 -32c0 -7 -4 -18 -9 -23l-96 -96c-25 -26 -25 -67 0 -92c18 -19 46 -22 68 -14c9 3 17 7 24 14l28 28c5 8 17 15 27 15
c18 0 32 -14 32 -32c0 -10 -7 -22 -15 -27l-28 -28c-14 -14 -31 -24 -48 -30c-45 -16 -96 -6 -132 30c-50 49 -50 130 0 180l96 96c3 4 9 8 13 10zM319 63h128v-64h-64v-64h-64v128z" />
    <glyph glyph-name="uniF187" unicode="&#xf187;" horiz-adv-x="511" 
d="M375 446v-1c12 1 24 2 36 -1c23 -5 44 -16 62 -34c50 -49 50 -130 0 -180l-96 -96c-39 -40 -84 -52 -116 -50s-44 11 -53 16s-17 18 -17 28c0 18 15 32 33 32c5 0 12 -2 16 -4c0 0 9 -7 26 -8s40 2 68 30l96 96c25 26 25 67 0 92c-18 19 -46 22 -68 14
c-9 -3 -17 -7 -24 -14c-5 -8 -17 -15 -27 -15c-18 0 -32 14 -32 32c0 10 6 22 14 27c14 14 31 24 48 30c11 4 22 5 34 6zM247 298v1c32 -1 41 -10 54 -14s23 -18 23 -31c0 -18 -14 -32 -32 -32c-6 0 -14 2 -19 6c0 0 -12 5 -30 6s-40 -2 -66 -28l-96 -96
c-25 -26 -25 -67 0 -92c18 -19 46 -22 68 -14c9 3 17 7 24 14c5 8 17 15 27 15c18 0 32 -14 32 -32c0 -10 -7 -22 -15 -27c-14 -14 -31 -24 -48 -30c-45 -16 -96 -6 -132 30c-50 49 -50 130 0 180l96 96c38 38 82 49 114 48z" />
    <glyph glyph-name="uniF188" unicode="&#xf188;" 
d="M0 448h192v-192h-192v192zM256 448h256v-64h-256v64zM256 320h192v-64h-192v64zM0 192h192v-192h-192v192zM256 192h256v-64h-256v64zM256 64h192v-64h-192v64z" />
    <glyph glyph-name="uniF189" unicode="&#xf189;" 
d="M32 448c18 0 32 -14 32 -32s-14 -32 -32 -32s-32 14 -32 32s14 32 32 32zM128 448h384v-64h-384v64zM32 320c18 0 32 -14 32 -32s-14 -32 -32 -32s-32 14 -32 32s14 32 32 32zM128 320h384v-64h-384v64zM32 192c18 0 32 -14 32 -32s-14 -32 -32 -32s-32 14 -32 32
s14 32 32 32zM128 192h384v-64h-384v64zM32 64c18 0 32 -14 32 -32s-14 -32 -32 -32s-32 14 -32 32s14 32 32 32zM128 64h384v-64h-384v64z" />
    <glyph glyph-name="uniF18A" unicode="&#xf18a;" 
d="M512 448l-256 -512l-64 192l-192 64z" />
    <glyph glyph-name="uniF18B" unicode="&#xf18b;" horiz-adv-x="384" 
d="M192 448c70 0 128 -58 128 -128v-64h64v-256h-384v256h64v64c0 70 58 128 128 128zM192 384c-36 0 -64 -28 -64 -64v-64h128v64c0 36 -28 64 -64 64z" />
    <glyph glyph-name="uniF18C" unicode="&#xf18c;" horiz-adv-x="384" 
d="M192 448c70 0 128 -58 128 -128v-128h64v-256h-384v256h256v128c0 36 -28 64 -64 64s-64 -28 -64 -64h-64c0 70 58 128 128 128z" />
    <glyph glyph-name="uniF18D" unicode="&#xf18d;" 
d="M256 384v-64c-71 0 -128 -57 -128 -128h64l-96 -128l-96 128h64c0 106 86 192 192 192zM416 320l96 -128h-64c0 -106 -86 -192 -192 -192v64c71 0 128 57 128 128h-64z" />
    <glyph glyph-name="uniF18E" unicode="&#xf18e;" 
d="M64 448h384v-192h64l-96 -160l-96 160h64v128h-256v-64h-64v128zM96 288l96 -160h-64v-128h256v64h64v-128h-384v192h-64z" />
    <glyph glyph-name="uniF18F" unicode="&#xf18f;" 
d="M384 448l128 -96l-128 -96v64h-320v-64h-64v64c0 35 29 64 64 64h320v64zM128 192v-64h320v64h64v-64c0 -35 -29 -64 -64 -64h-320v-64l-128 96z" />
    <glyph glyph-name="uniF190" unicode="&#xf190;" horiz-adv-x="517" 
d="M224 448l1 1c124 0 224 -100 224 -224c0 -38 -12 -76 -29 -107c3 -2 8 -5 11 -8l64 -64c12 -11 22 -33 22 -49c0 -36 -30 -65 -66 -65c-16 0 -37 10 -48 22l-64 64c-3 2 -7 5 -9 8c-31 -17 -68 -26 -106 -26c-124 0 -224 100 -224 224s100 224 224 224zM225 385l-1 -1
c-89 0 -160 -71 -160 -160s71 -160 160 -160c42 0 80 14 108 40c2 3 5 7 8 9l2 2c27 29 43 68 43 110c0 89 -71 160 -160 160z" />
    <glyph glyph-name="uniF191" unicode="&#xf191;" horiz-adv-x="384" 
d="M192 448c106 0 192 -86 192 -192c0 -128 -192 -320 -192 -320s-192 192 -192 320c0 106 86 192 192 192zM192 384c-70 0 -128 -58 -128 -128c0 -71 58 -128 128 -128c71 0 128 57 128 128c0 70 -57 128 -128 128z" />
    <glyph glyph-name="uniF192" unicode="&#xf192;" horiz-adv-x="513" 
d="M0 448v1h512v-347c0 -2 1 -5 1 -7s-1 -5 -1 -7v-152h-512v512zM64 385v-384h384v64h-96h-3c-18 0 -32 14 -32 32c0 16 13 31 29 32h3h3h96v256h-384zM224 321c53 0 96 -43 96 -96c0 -64 -96 -160 -96 -160s-96 96 -96 160c0 53 43 96 96 96zM224 257
c-18 0 -32 -14 -32 -32s14 -32 32 -32s32 14 32 32s-14 32 -32 32z" />
    <glyph glyph-name="uniF193" unicode="&#xf193;" horiz-adv-x="384" 
d="M0 384h128v-384h-128v384zM256 384h128v-384h-128v384z" />
    <glyph glyph-name="uniF194" unicode="&#xf194;" horiz-adv-x="384" 
d="M0 384l384 -192l-384 -192v384z" />
    <glyph glyph-name="uniF195" unicode="&#xf195;" horiz-adv-x="384" 
d="M192 384c106 0 192 -86 192 -192s-86 -192 -192 -192s-192 86 -192 192s86 192 192 192z" />
    <glyph glyph-name="uniF196" unicode="&#xf196;" 
d="M256 384v-384l-256 192zM256 192l256 192v-384z" />
    <glyph glyph-name="uniF197" unicode="&#xf197;" 
d="M0 384l256 -192l-256 -192v384zM256 192v192l256 -192l-256 -192v192z" />
    <glyph glyph-name="uniF198" unicode="&#xf198;" horiz-adv-x="448" 
d="M0 384h128v-384h-128v384zM128 192l320 192v-384z" />
    <glyph glyph-name="uniF199" unicode="&#xf199;" horiz-adv-x="448" 
d="M0 384l320 -192l-320 -192v384zM320 192v192h128v-384h-128v192z" />
    <glyph glyph-name="uniF19A" unicode="&#xf19a;" horiz-adv-x="384" 
d="M0 384h384v-384h-384v384z" />
    <glyph glyph-name="uniF19B" unicode="&#xf19b;" 
d="M128 448h256v-128h128v-256h-128v-128h-256v128h-128v256h128v128z" />
    <glyph glyph-name="uniF1EF" unicode="&#xf1ef;" 
d="M0 448h128v-128h-128v128zM192 416h320v-64h-320v64zM0 256h128v-128h-128v128zM192 224h320v-64h-320v64zM0 64h128v-128h-128v128zM192 32h320v-64h-320v64z" />
    <glyph glyph-name="uniF1F0" unicode="&#xf1f0;" 
d="M0 432h128v-128h-128v128zM192 400h320v-64h-320v64zM192 272h64v-128h-64v128zM192 208h256v-64h-256v64zM192 80h64v-128h-64v128zM192 16h256v-64h-256v64z" />
    <glyph glyph-name="uniF19C" unicode="&#xf19c;" 
d="M0 384h512v-64h-512v64zM0 194h512v-64h-512v64zM0 2h512v-64h-512v64z" />
    <glyph glyph-name="uniF19D" unicode="&#xf19d;" horiz-adv-x="385" 
d="M186 450h5c35 0 64 -29 64 -64v-2v-128c0 -35 -29 -64 -64 -64s-64 29 -64 64v128v2c0 28 22 56 50 62c2 1 7 2 9 2zM22 320h1h2h2c2 0 4 1 6 1c18 0 32 -14 32 -32v-1v-32c0 -71 57 -128 128 -128s128 57 128 128v32c0 18 14 32 32 32s32 -14 32 -32v-32
c0 -95 -70 -173 -160 -188v-68h32c35 0 64 -29 64 -64h-257c0 35 29 64 64 64h32v68c-90 16 -160 93 -160 188v32v2c0 13 10 26 22 30z" />
    <glyph glyph-name="uniF19E" unicode="&#xf19e;" 
d="M0 256h512v-128h-512v128z" />
    <glyph glyph-name="uniF19F" unicode="&#xf19f;" 
d="M22 448v0h2h2h3h3h448c18 0 32 -14 32 -32v-320c0 -18 -14 -32 -32 -32h-160v-64h64c35 0 64 -29 64 -64h-384c0 35 29 64 64 64h64v64h-160c-18 0 -32 14 -32 32v320v2c0 13 10 26 22 30zM65 384v-256h384v256h-384z" />
    <glyph glyph-name="uniF1A0" unicode="&#xf1a0;" horiz-adv-x="498" 
d="M174 448c-9 -26 -14 -53 -14 -82c0 -141 115 -256 256 -256c29 0 56 6 82 14c-34 -101 -129 -174 -242 -174c-141 0 -256 115 -256 256c0 113 73 208 174 242z" />
    <glyph glyph-name="uniF1A1" unicode="&#xf1a1;" horiz-adv-x="448" 
d="M224 448l96 -96h-64v-96h96v64l96 -96l-96 -96v64h-96v-96h64l-96 -96l-96 96h64v96h-96v-64l-96 96l96 96v-64h96v96h-64z" />
    <glyph glyph-name="uniF1A2" unicode="&#xf1a2;" 
d="M512 448v-352c0 -53 -43 -96 -96 -96s-96 43 -96 96s43 96 96 96c11 0 22 -3 32 -6v132c-129 -4 -209 -17 -256 -32v-254c0 -53 -43 -96 -96 -96s-96 43 -96 96s43 96 96 96c11 0 22 -3 32 -6v262s64 64 384 64z" />
    <glyph glyph-name="uniF1F1" unicode="&#xf1f1;" 
d="M496 256c9 0 16 -7 16 -16v-96c0 -9 -7 -16 -16 -16h-176v-176c0 -9 -7 -16 -16 -16h-96c-9 0 -16 7 -16 16v176h-176c-9 0 -16 7 -16 16v96c0 9 7 16 16 16h176v176c0 9 7 16 16 16h96c9 0 16 -7 16 -16v-176h176z" />
    <glyph glyph-name="uniF1A3" unicode="&#xf1a3;" horiz-adv-x="447" 
d="M320 448l-1 -1c33 0 65 -12 90 -37c50 -49 50 -130 0 -180l-160 -156c-31 -31 -81 -31 -112 0s-31 81 0 112l62 62l44 -44l-58 -61l-4 -2c-6 -7 -6 -18 0 -24c7 -6 19 -6 25 0l160 158c24 26 25 65 0 90c-26 25 -68 25 -93 0l-177 -176c-42 -44 -44 -114 0 -158
s116 -44 160 0l5 9l75 72l44 -44l-80 -80c-69 -68 -181 -68 -249 0c-68 69 -68 180 0 248l178 174c25 24 58 38 91 38z" />
    <glyph glyph-name="uniF1A4" unicode="&#xf1a4;" 
d="M384 448l128 -128l-64 -64l-128 128zM256 320l128 -128l-256 -256h-128v128z" />
    <glyph glyph-name="uniF1A5" unicode="&#xf1a5;" 
d="M352 448v-1c53 0 96 -58 96 -128s-43 -128 -96 -128c-13 0 -26 6 -38 13c4 17 6 32 6 51c0 54 -17 102 -46 137c17 34 45 56 78 56zM160 383c53 0 96 -58 96 -128s-43 -128 -96 -128s-96 58 -96 128s43 128 96 128zM464 181v1c28 -14 48 -43 48 -76v-107h-128v43
c0 32 -11 61 -28 85c43 1 80 21 108 54zM48 118c29 -33 68 -54 112 -54s83 20 112 54c28 -14 48 -43 48 -76v-107h-320v107c0 33 20 62 48 76z" />
    <glyph glyph-name="uniF1A6" unicode="&#xf1a6;" 
d="M256 448c70 0 128 -72 128 -160s-58 -160 -128 -160s-128 72 -128 160s58 160 128 160zM122 128c35 -39 82 -64 134 -64s99 25 134 64c68 -3 122 -59 122 -128v-64h-512v64c0 69 54 125 122 128z" />
    <glyph glyph-name="uniF1A7" unicode="&#xf1a7;" horiz-adv-x="321" 
d="M12 448h296c7 0 13 -5 13 -12v-488c0 -7 -6 -13 -13 -13h-296c-7 0 -12 6 -12 13v488c0 7 5 12 12 12zM64 384v-320h192v320h-192zM160 32c-18 0 -32 -14 -32 -32s14 -32 32 -32s32 14 32 32s-14 32 -32 32z" />
    <glyph glyph-name="uniF1A8" unicode="&#xf1a8;" 
d="M224 448c11 0 22 -1 32 -2v-254l-190 190c40 40 96 66 158 66zM320 380c108 -16 192 -107 192 -220c0 -124 -100 -224 -224 -224c-54 0 -103 20 -142 52l174 174v218zM58 296l153 -149l-137 -137c-45 35 -74 89 -74 150c0 54 22 101 58 136z" />
    <glyph glyph-name="uniF1A9" unicode="&#xf1a9;" horiz-adv-x="448" 
d="M86 448v0h2h2h3h3h256c18 0 32 -14 32 -32s-14 -32 -32 -32h-32v-128h64c35 0 64 -29 64 -64h-192v-192l-36 -64l-28 64v192h-192c0 35 29 64 64 64h64v128h-32h-5c-18 0 -33 14 -33 32c0 15 13 30 28 32z" />
    <glyph glyph-name="uniF1AA" unicode="&#xf1aa;" 
d="M256 448c141 0 256 -115 256 -256s-115 -256 -256 -256s-256 115 -256 256s115 256 256 256zM192 320v-256l192 128z" />
    <glyph glyph-name="uniF1AB" unicode="&#xf1ab;" 
d="M192 448h128v-192h192v-128h-192v-192h-128v192h-192v128h192v192z" />
    <glyph glyph-name="uniF1AC" unicode="&#xf1ac;" horiz-adv-x="448" 
d="M192 448h64v-256h-64v256zM110 356l40 -50l-26 -20c-37 -29 -60 -75 -60 -126c0 -89 71 -160 160 -160s160 71 160 160c0 51 -25 97 -62 126l-24 20l40 50l24 -20c52 -41 86 -105 86 -176c0 -124 -100 -224 -224 -224s-224 100 -224 224c0 71 34 135 86 176z" />
    <glyph glyph-name="uniF1AD" unicode="&#xf1ad;" 
d="M128 448h256v-128h-256v128zM6 256v0h500c3 0 6 -2 6 -6v-180c0 -3 -3 -5 -6 -5h-58v128h-384v-128h-58c-3 0 -6 2 -6 5v180c0 3 2 6 6 6zM129 128h256v-192h-256v192z" />
    <glyph glyph-name="uniF1AE" unicode="&#xf1ae;" 
d="M0 448h64v-448h-64v448zM448 448h64v-448h-64v448zM128 384h128v-64h-128v64zM192 256h128v-64h-128v64zM256 128h128v-64h-128v64z" />
    <glyph glyph-name="uniF1AF" unicode="&#xf1af;" horiz-adv-x="513" 
d="M208 448l30 -98l54 -170l30 76l26 66l32 -62l24 -48h109v-64h-148l-9 18l-37 -94l-34 -82l-26 86l-50 160l-50 -160l-30 -96l-30 94l-25 74h-74v64h120l6 -22l2 -4l50 164z" />
    <glyph glyph-name="uniF1B0" unicode="&#xf1b0;" 
d="M192 448c18 0 34 -6 46 -18s18 -28 18 -46s-12 -31 -18 -46c-1 -4 -2 -10 -2 -18h148v-148c8 0 14 0 18 2c15 6 28 18 46 18s34 -6 46 -18s18 -28 18 -46s-6 -34 -18 -46s-28 -18 -46 -18s-31 12 -46 18c-4 1 -10 2 -18 2v-148h-148c0 8 0 14 2 18c6 15 18 28 18 46
s-6 34 -18 46s-28 18 -46 18s-34 -6 -46 -18s-18 -28 -18 -46s12 -31 18 -46c1 -4 2 -10 2 -18h-148v384h148c0 8 0 14 -2 18c-6 15 -18 28 -18 46s6 34 18 46s28 18 46 18z" />
    <glyph glyph-name="uniF1B1" unicode="&#xf1b1;" horiz-adv-x="318" 
d="M158 448c54 0 94 -13 122 -38c27 -25 38 -59 38 -90c0 -75 -44 -116 -76 -144s-52 -43 -52 -96v-16h-64v16c0 75 42 116 74 144s54 43 54 96c0 17 -5 30 -18 42s-36 22 -78 22c-43 0 -62 -12 -74 -24s-17 -28 -20 -44l-64 8c3 24 12 56 38 82s66 42 120 42zM126 0h64v-64
h-64v64z" />
    <glyph glyph-name="uniF1B2" unicode="&#xf1b2;" horiz-adv-x="513" 
d="M288 448h1c88 0 160 -72 160 -160v-32c37 -13 64 -54 64 -96c0 -44 -32 -81 -73 -92c-15 35 -48 60 -88 60c-13 0 -25 -4 -36 -8c-11 41 -48 72 -92 72c-45 0 -81 -31 -92 -72c-11 5 -23 8 -36 8c-24 0 -45 -8 -62 -22c-21 22 -34 52 -34 86c0 70 58 128 128 128
c15 73 83 128 160 128zM214 128h1h2h2c2 0 4 1 6 1c18 0 32 -14 32 -32v-1v-128c0 -18 -14 -32 -32 -32s-32 14 -32 32v128v2c0 13 9 26 21 30zM87 64h1h2h2c2 0 3 1 5 1c18 0 32 -14 32 -32v-1v-64c0 -18 -14 -32 -32 -32s-32 14 -32 32v64v2c0 13 10 26 22 30zM344 64v0h2
h2c2 0 4 1 6 1c18 0 32 -14 32 -32v-1v-64c0 -18 -14 -32 -32 -32s-32 14 -32 32v64v2c0 13 10 26 22 30z" />
    <glyph glyph-name="uniF1B3" unicode="&#xf1b3;" 
d="M384 448l128 -96l-128 -96v64h-32l-98 -122l112 -132c1 1 3 -1 4 -2h14v64l128 -96l-128 -96v64h-16c-22 0 -36 7 -50 24l-106 123l-98 -123c-14 -18 -28 -24 -50 -24h-64v64h64l106 132l-104 122c-1 -1 -5 2 -2 2h-64v64h64c22 0 36 -7 50 -24l98 -114l90 114
c14 18 28 24 50 24h32v64z" />
    <glyph glyph-name="uniF1B4" unicode="&#xf1b4;" horiz-adv-x="511" 
d="M256 448h-1c70 0 134 -30 180 -76l76 76v-192h-192l70 70c-35 35 -81 58 -134 58c-106 0 -192 -86 -192 -192s86 -192 192 -192c54 0 102 21 137 56l46 -46c-46 -47 -112 -74 -182 -74c-141 0 -256 115 -256 256s115 256 256 256z" />
    <glyph glyph-name="uniF1B5" unicode="&#xf1b5;" 
d="M256 448h256v-256l-106 106l-256 -256l106 -106h-256v256l106 -106l256 256z" />
    <glyph glyph-name="uniF1B6" unicode="&#xf1b6;" horiz-adv-x="320" 
d="M160 448l160 -192h-128v-128h128l-160 -192l-160 192h128v128h-128z" />
    <glyph glyph-name="uniF1B7" unicode="&#xf1b7;" 
d="M192 384v-128h128v128l192 -160l-192 -160v128h-128v-128l-192 160z" />
    <glyph glyph-name="uniF1B8" unicode="&#xf1b8;" 
d="M0 448c282 0 512 -230 512 -512h-128c0 213 -171 384 -384 384v128zM0 256c176 0 320 -144 320 -320h-128c0 107 -85 192 -192 192v128zM0 64c70 0 128 -57 128 -128h-128v128z" />
    <glyph glyph-name="uniF1B9" unicode="&#xf1b9;" 
d="M64 448c247 0 448 -201 448 -448h-64c0 212 -172 384 -384 384v64zM64 320c177 0 320 -143 320 -320h-64c0 141 -115 256 -256 256v64zM64 192c106 0 192 -86 192 -192h-64c0 71 -57 128 -128 128v64zM64 64c35 0 64 -29 64 -64s-29 -64 -64 -64s-64 29 -64 64
s29 64 64 64z" />
    <glyph glyph-name="uniF1BA" unicode="&#xf1ba;" 
d="M192 448h256c35 0 64 -29 64 -64v-128h-256v96c0 18 -14 32 -32 32s-32 -14 -32 -32v-160h256v-192c0 -35 -29 -64 -64 -64h-320c-35 0 -64 29 -64 64v128h64v-96c0 -18 14 -32 32 -32s32 14 32 32v352c0 35 29 64 64 64z" />
    <glyph glyph-name="uniF1BB" unicode="&#xf1bb;" 
d="M48 448h144v-64h-128v-320h256v64h64v-80c0 -26 -22 -48 -48 -48h-288c-26 0 -48 22 -48 48v352c0 26 22 48 48 48zM384 448l128 -128l-128 -128v64h-128c-61 0 -111 -42 -124 -98c15 127 121 226 252 226v64z" />
    <glyph glyph-name="uniF1BC" unicode="&#xf1bc;" 
d="M320 448l192 -182l-192 -202v128h-64c-128 0 -223 -65 -256 -192c0 189 64 320 320 320v128z" />
    <glyph glyph-name="uniF1BD" unicode="&#xf1bd;" 
d="M256 448l12 -6l224 -94l20 -8v-20c0 -106 -43 -200 -94 -268c-26 -34 -53 -62 -80 -82s-53 -34 -82 -34s-55 14 -82 34s-54 48 -80 82c-51 68 -94 162 -94 268v20l20 8l224 94zM256 378v0l-188 -78c5 -80 37 -156 78 -210c22 -29 47 -55 68 -70s39 -20 42 -20v378z" />
    <glyph glyph-name="uniF1BE" unicode="&#xf1be;" horiz-adv-x="448" 
d="M384 448h64v-512h-64v512zM256 384h64v-448h-64v448zM128 256h64v-320h-64v320zM0 128h64v-192h-64v192z" />
    <glyph glyph-name="uniF1BF" unicode="&#xf1bf;" horiz-adv-x="448" 
d="M192 448h64v-128h128l64 -64l-64 -64h-128v-256h-64v320h-128l-64 64l64 64h128v64z" />
    <glyph glyph-name="uniF1C0" unicode="&#xf1c0;" 
d="M128 448h64v-384h128l-160 -128l-160 128h128v384zM256 448h128v-64h-128v64zM256 320h192v-64h-192v64zM256 192h256v-64h-256v64z" />
    <glyph glyph-name="uniF1C1" unicode="&#xf1c1;" 
d="M128 448h64v-384h128l-160 -128l-160 128h128v384zM256 448h256v-64h-256v64zM256 320h192v-64h-192v64zM256 192h128v-64h-128v64z" />
    <glyph glyph-name="uniF1C2" unicode="&#xf1c2;" 
d="M48 448h416c26 0 48 -22 48 -48v-352c0 -26 -22 -48 -48 -48h-416c-26 0 -48 22 -48 48v352c0 26 22 48 48 48zM64 384v-64h64v64h-64zM192 384v-64h256v64h-256zM64 256v-64h64v64h-64zM192 256v-64h256v64h-256zM64 128v-64h64v64h-64zM192 128v-64h256v64h-256z" />
    <glyph glyph-name="uniF1C3" unicode="&#xf1c3;" 
d="M256 448l64 -192h192l-160 -128l64 -192l-160 128l-160 -128l64 192l-160 128h192z" />
    <glyph glyph-name="uniF1C4" unicode="&#xf1c4;" 
d="M256 448c18 0 32 -14 32 -32s-14 -32 -32 -32s-32 14 -32 32s14 32 32 32zM96 384c18 0 32 -14 32 -32s-14 -32 -32 -32s-32 14 -32 32s14 32 32 32zM416 384c18 0 32 -14 32 -32s-14 -32 -32 -32s-32 14 -32 32s14 32 32 32zM256 320c70 0 128 -58 128 -128
s-58 -128 -128 -128s-128 58 -128 128s58 128 128 128zM32 224c18 0 32 -14 32 -32s-14 -32 -32 -32s-32 14 -32 32s14 32 32 32zM480 224c18 0 32 -14 32 -32s-14 -32 -32 -32s-32 14 -32 32s14 32 32 32zM96 64c18 0 32 -14 32 -32s-14 -32 -32 -32s-32 14 -32 32
s14 32 32 32zM416 64c18 0 32 -14 32 -32s-14 -32 -32 -32s-32 14 -32 32s14 32 32 32zM256 0c18 0 32 -14 32 -32s-14 -32 -32 -32s-32 14 -32 32s14 32 32 32z" />
    <glyph glyph-name="uniF1C5" unicode="&#xf1c5;" horiz-adv-x="447" 
d="M22 448h404c12 0 21 -10 21 -22v-468c0 -12 -9 -21 -21 -21h-404c-12 0 -22 9 -22 21v468c0 12 10 22 22 22zM64 384v-320h320v320h-320zM224 32c-25 0 -40 -27 -28 -48c13 -21 44 -21 56 0s-4 48 -28 48z" />
    <glyph glyph-name="uniF1C6" unicode="&#xf1c6;" 
d="M0 448h192l320 -320l-192 -192l-320 320v192zM128 384c-35 0 -64 -29 -64 -64s29 -64 64 -64s64 29 64 64s-29 64 -64 64z" />
    <glyph glyph-name="uniF1C7" unicode="&#xf1c7;" 
d="M0 384h128l64 -64l128 -128l-32 -32l-96 -96l-192 192v128zM218 384h102l192 -192l-128 -128l-50 50l76 78zM96 320c-18 0 -32 -14 -32 -32s14 -32 32 -32s32 14 32 32s-14 32 -32 32z" />
    <glyph glyph-name="uniF1C8" unicode="&#xf1c8;" 
d="M256 448c141 0 256 -115 256 -256s-115 -256 -256 -256s-256 115 -256 256s115 256 256 256zM256 384c-106 0 -192 -86 -192 -192s86 -192 192 -192s192 86 192 192s-86 192 -192 192zM256 320c70 0 128 -58 128 -128s-58 -128 -128 -128s-128 58 -128 128
s58 128 128 128zM256 256c-36 0 -64 -28 -64 -64s28 -64 64 -64s64 28 64 64s-28 64 -64 64z" />
    <glyph glyph-name="uniF1C9" unicode="&#xf1c9;" 
d="M0 448h358l-64 -64h-230v-320h320v102l64 64v-230h-448v448zM448 448l64 -64l-256 -256l-128 128l64 64l64 -64z" />
    <glyph glyph-name="uniF1CA" unicode="&#xf1ca;" horiz-adv-x="511" 
d="M6 448h500c3 0 5 -2 5 -6v-500c0 -3 -2 -5 -5 -5h-500c-3 0 -6 2 -6 5v500c0 3 2 6 6 6zM96 398l-46 -46l64 -64l-64 -64l46 -46l110 110zM256 256v-64h192v64h-192z" />
    <glyph glyph-name="uniF1CB" unicode="&#xf1cb;" 
d="M0 448h512v-128h-32c0 35 -29 64 -64 64h-96v-352c0 -18 14 -32 32 -32h32v-64h-256v64h32c18 0 32 14 32 32v352h-96c-35 0 -64 -29 -64 -64h-32v128z" />
    <glyph glyph-name="uniF1CC" unicode="&#xf1cc;" horiz-adv-x="448" 
d="M0 448h64v-256h-64v256zM128 448h224c13 0 25 -8 30 -20c0 0 66 -186 66 -204s-14 -32 -32 -32h-96c-18 0 -32 -16 -32 -32s25 -101 30 -118c6 -17 -3 -35 -20 -40s-34 3 -42 20s-70 140 -82 152s-28 18 -46 18v256z" />
    <glyph glyph-name="uniF1CD" unicode="&#xf1cd;" horiz-adv-x="448" 
d="M286 448c4 1 8 -1 12 -2c17 -6 25 -23 20 -40s-30 -102 -30 -118s14 -32 32 -32h96c18 0 32 -14 32 -32s-66 -204 -66 -204c-5 -12 -17 -20 -30 -20h-224v256c18 0 34 6 46 18s74 135 82 152c6 12 18 21 30 22zM0 256h64v-256h-64v256z" />
    <glyph glyph-name="uniF1CE" unicode="&#xf1ce;" horiz-adv-x="449" 
d="M128 448v-1h192v-64h-64v-3c16 -3 31 -6 46 -11l-22 -60c-19 7 -37 10 -56 10c-89 0 -160 -71 -160 -160s71 -160 160 -160s160 71 160 160c0 20 -3 38 -10 57l58 24c10 -24 16 -51 16 -80c0 -124 -100 -224 -224 -224s-224 100 -224 224c0 113 83 207 192 222v2h-64v64z
M448 373h1s-190 -223 -203 -236s-32 -13 -44 0s-12 31 0 44c12 12 246 192 246 192z" />
    <glyph glyph-name="uniF1CF" unicode="&#xf1cf;" 
d="M384 448l128 -96l-128 -96v64h-384v64h384v64zM128 192v-64h384v-64h-384v-64l-128 96z" />
    <glyph glyph-name="uniF1D0" unicode="&#xf1d0;" horiz-adv-x="448" 
d="M192 448h64c35 0 64 -29 64 -64h64c35 0 64 -29 64 -64h-448c0 35 29 64 64 64h64c0 35 29 64 64 64zM64 256h1h64v-224c0 -18 14 -32 32 -32s32 14 32 32v224h64v-224c0 -18 14 -32 32 -32s32 14 32 32v224h64v-308c0 -7 -6 -12 -13 -12h-296c-7 0 -12 5 -12 12v308z
" />
    <glyph glyph-name="uniF1D1" unicode="&#xf1d1;" horiz-adv-x="448" 
d="M64 448h128v-256c0 -35 29 -64 64 -64s64 29 64 64v256h64v-256c0 -70 -58 -128 -128 -128h-32c-88 0 -160 58 -160 128v256zM0 0h448v-64h-448v64z" />
    <glyph glyph-name="uniF1D2" unicode="&#xf1d2;" 
d="M6 448h116c3 0 5 -2 5 -6v-308c0 -3 -2 -5 -5 -5h-116c-3 0 -6 2 -6 5v308c0 3 2 6 6 6zM390 448h116c3 0 5 -2 5 -6v-308c0 -3 -2 -5 -5 -5h-116c-3 0 -6 2 -6 5v308c0 3 3 6 6 6zM198 320h116c3 0 5 -2 5 -6v-180c0 -3 -2 -5 -5 -5h-116c-3 0 -6 2 -6 5v180
c0 3 2 6 6 6zM0 64h512v-64h-512v64z" />
    <glyph glyph-name="uniF1D3" unicode="&#xf1d3;" horiz-adv-x="514" 
d="M6 448v0h116c3 0 6 -2 6 -6v-122h-128v122c0 3 2 6 6 6zM390 448h1h116c3 0 6 -2 6 -6v-122h-128v122c0 3 2 6 5 6zM199 384h1h116c3 0 5 -3 5 -6v-58h-128v58c0 3 2 6 6 6zM2 256h512v-64h-512v64zM2 128h-1h128v-122c0 -3 -2 -6 -5 -6h-116c-3 0 -6 3 -6 6v122z
M193 128v0h128v-58c0 -3 -3 -6 -6 -6h-116c-3 0 -6 3 -6 6v58zM385 128h-1h128v-122c0 -3 -3 -6 -6 -6h-116c-3 0 -5 3 -5 6v122z" />
    <glyph glyph-name="uniF1D4" unicode="&#xf1d4;" 
d="M0 448h512v-64h-512v64zM6 320h116c3 0 5 -2 5 -6v-308c0 -3 -2 -5 -5 -5h-116c-3 0 -6 2 -6 5v308c0 3 2 6 6 6zM198 320h116c3 0 5 -2 5 -6v-180c0 -3 -2 -5 -5 -5h-116c-3 0 -6 2 -6 5v180c0 3 2 6 6 6zM390 320h116c3 0 5 -2 5 -6v-308c0 -3 -2 -5 -5 -5h-116
c-3 0 -6 2 -6 5v308c0 3 3 6 6 6z" />
    <glyph glyph-name="uniF1D5" unicode="&#xf1d5;" 
d="M32 384h320c18 0 32 -14 32 -32v-96l64 64h64v-192h-64l-64 64v-96c0 -18 -14 -32 -32 -32h-320c-17 0 -32 14 -32 32v256c0 17 14 32 32 32z" />
    <glyph glyph-name="uniF1D6" unicode="&#xf1d6;" 
d="M214 448h42v-512h-42l-86 128h-128v256h128zM320 384c17 0 33 -2 48 -6c83 -21 144 -96 144 -186s-61 -165 -144 -186h-2c-15 -3 -30 -6 -46 -6v64c11 0 22 1 32 4c56 14 96 64 96 124s-41 110 -96 124c-10 3 -21 4 -32 4v64zM320 256c5 0 11 -1 16 -2
c28 -7 48 -33 48 -62s-20 -55 -48 -62c-4 -1 -10 -2 -16 -2v128z" />
    <glyph glyph-name="uniF1D7" unicode="&#xf1d7;" horiz-adv-x="384" 
d="M214 448h42v-512h-42l-86 128h-128v256h128zM320 256c5 0 11 -1 16 -2c28 -7 48 -33 48 -62s-20 -55 -48 -62c-4 -1 -10 -2 -16 -2v128z" />
    <glyph glyph-name="uniF1D8" unicode="&#xf1d8;" horiz-adv-x="256" 
d="M214 448h42v-512h-42l-86 128h-128v256h128z" />
    <glyph glyph-name="uniF1D9" unicode="&#xf1d9;" horiz-adv-x="447" 
d="M198 448h-1h52c4 0 7 -3 8 -6l188 -436c1 -3 2 -9 2 -12v-52c0 -3 -2 -5 -5 -5h-436c-3 0 -6 2 -6 5v52c0 4 1 9 2 12l188 436c2 3 4 6 8 6zM191 256v-128h64v128h-64zM191 64v-64h64v64h-64z" />
    <glyph glyph-name="uniF1DA" unicode="&#xf1da;" horiz-adv-x="482" 
d="M240 448c88 0 172 -25 242 -70l-34 -52c-60 38 -131 59 -208 59c-76 0 -146 -21 -206 -59l-34 52c70 44 152 70 240 70zM240 256h-1c51 0 99 -15 139 -40l-34 -54c-30 19 -67 30 -105 30s-71 -11 -101 -30l-34 54c40 26 85 40 136 40zM239 64c35 0 64 -29 64 -64
s-29 -64 -64 -64s-64 29 -64 64s29 64 64 64z" />
    <glyph glyph-name="uniF1DB" unicode="&#xf1db;" horiz-adv-x="513" 
d="M353 448v-1c10 0 21 0 31 -2l-63 -62v-128h128l63 62c2 -10 1 -20 1 -30c0 -88 -72 -160 -160 -160c-21 0 -40 6 -58 13l-184 -187c-13 -12 -29 -18 -46 -18s-33 5 -46 18c-25 25 -25 67 0 92l186 185c-7 19 -12 38 -12 58c0 88 72 160 160 160zM65 31
c-18 0 -32 -14 -32 -32s14 -32 32 -32s32 14 32 32s-14 32 -32 32z" />
    <glyph glyph-name="uniF1DC" unicode="&#xf1dc;" horiz-adv-x="502" 
d="M90 448l46 -46l116 -114l114 114l44 46l92 -90l-46 -46l-116 -116l116 -114l46 -44l-92 -92l-44 46l-114 116l-116 -116l-46 -46l-90 92l46 44l114 114l-114 116l-46 46z" />
    <glyph glyph-name="uniF1DD" unicode="&#xf1dd;" horiz-adv-x="448" 
d="M0 448h64l148 -192h24l148 192h64l-144 -192h144v-64h-192v-64h192v-64h-192v-128h-64v128h-192v64h192v64h-192v64h144z" />
    <glyph glyph-name="uniF1DE" unicode="&#xf1de;" horiz-adv-x="516" 
d="M224 448c124 0 224 -100 224 -224c0 -39 -11 -76 -28 -108c2 -1 6 -4 8 -6l66 -64c12 -11 22 -33 22 -49c0 -36 -29 -65 -65 -65c-16 0 -38 10 -49 22l-64 66c-2 2 -5 6 -6 8c-32 -18 -69 -28 -108 -28c-124 0 -224 100 -224 224s100 224 224 224zM224 384v1
c-89 0 -160 -71 -160 -160s71 -160 160 -160c40 0 76 13 104 37c3 6 11 14 16 18c1 1 3 2 4 2l2 2c21 27 34 62 34 100c0 89 -71 160 -160 160zM192 321h64v-64h64v-64h-64v-64h-64v64h-64v64h64v64z" />
    <glyph glyph-name="uniF1DF" unicode="&#xf1df;" horiz-adv-x="516" 
d="M224 448c124 0 224 -100 224 -224c0 -39 -11 -76 -28 -108c2 -1 6 -4 8 -6l66 -64c12 -11 22 -33 22 -49c0 -36 -29 -65 -65 -65c-16 0 -38 10 -49 22l-64 66c-2 2 -5 6 -6 8c-32 -18 -69 -28 -108 -28c-124 0 -224 100 -224 224s100 224 224 224zM224 384v1
c-89 0 -160 -71 -160 -160s71 -160 160 -160c40 0 76 13 104 37c3 6 11 14 16 18c1 1 3 2 4 2l2 2c21 27 34 62 34 100c0 89 -71 160 -160 160zM128 257h192v-64h-192v64z" />
  </font>
</defs>
</svg>
